<svg width="307" height="282" viewBox="0 0 307 282" fill="none" xmlns="http://www.w3.org/2000/svg">
<g clip-path="url(#clip0)">
<path d="M143.414 0H5.67976C2.54291 0 0 2.54291 0 5.67976V103.94C0 107.076 2.54291 109.619 5.67976 109.619H143.414C146.551 109.619 149.094 107.076 149.094 103.94V5.67976C149.094 2.54291 146.551 0 143.414 0Z" fill="#F2F6FB"/>
<path d="M147.958 11.8586H1.13595C0.508583 11.8586 0 12.3672 0 12.9946V85.3168C0 85.9442 0.508583 86.4528 1.13595 86.4528H147.958C148.585 86.4528 149.094 85.9442 149.094 85.3168V12.9946C149.094 12.3672 148.585 11.8586 147.958 11.8586Z" fill="#E1E5F0"/>
<path d="M147.958 11.8586H1.13595C0.508583 11.8586 0 12.3672 0 12.9946V85.3168C0 85.9442 0.508583 86.4528 1.13595 86.4528H147.958C148.585 86.4528 149.094 85.9442 149.094 85.3168V12.9946C149.094 12.3672 148.585 11.8586 147.958 11.8586Z" fill="#E1E5F0"/>
<mask id="mask0" mask-type="alpha" maskUnits="userSpaceOnUse" x="0" y="11" width="150" height="76">
<path d="M147.958 11.9279H1.13595C0.508583 11.9279 0 12.4364 0 13.0638V85.3861C0 86.0134 0.508583 86.522 1.13595 86.522H147.958C148.585 86.522 149.094 86.0134 149.094 85.3861V13.0638C149.094 12.4364 148.585 11.9279 147.958 11.9279Z" fill="white"/>
</mask>
<g mask="url(#mask0)">
<path d="M147.958 11.9279H1.13595C0.508583 11.9279 0 12.4364 0 13.0638V85.3861C0 86.0134 0.508583 86.522 1.13595 86.522H147.958C148.585 86.522 149.094 86.0134 149.094 85.3861V13.0638C149.094 12.4364 148.585 11.9279 147.958 11.9279Z" fill="#E1E5F0"/>
<path d="M147.958 67.7783H1.13595C0.508583 67.7783 0 68.2869 0 68.9143V85.9536C0 86.5809 0.508583 87.0895 1.13595 87.0895H147.958C148.585 87.0895 149.094 86.5809 149.094 85.9536V68.9143C149.094 68.2869 148.585 67.7783 147.958 67.7783Z" fill="#3ABCD8"/>
<path fill-rule="evenodd" clip-rule="evenodd" d="M68.2904 94.351C71.6326 96.131 73.5529 97.3714 73.5529 97.3714L66.809 97.3372L66.4726 98.0154C66.0134 97.7806 65.5654 97.5517 65.1286 97.3287L64.9246 97.3277C64.94 97.6615 64.9551 97.9979 64.9701 98.3369L62.0648 97.3132L54.1917 97.2734C50.3909 100.13 27.5256 98.035 21.9782 97.1104L17.4227 97.0874C0.543841 99.0753 12.0883 62.8952 12.0883 62.8952C14.635 55.5439 16.7307 50.8773 18.3755 48.8955C21.2568 45.4237 26.3586 44.7242 29.3238 44.5877C33.1211 43.8144 42.2225 45.0882 44.133 45.6C44.3658 45.664 44.6063 45.7299 44.8532 45.7985C44.845 45.7822 44.8368 45.766 44.8286 45.7497C49.4363 45.6317 53.1765 47.759 56.0491 52.1316C57.2079 53.8954 58.8919 62.1581 60.9438 65.8936C61.6491 67.1775 62.2786 69.5017 62.8324 72.8662C63.8185 71.2652 64.876 69.5472 66.0048 67.7121C66.2513 67.3113 66.7761 67.1863 67.1768 67.4328C67.1862 67.4386 67.1954 67.4445 67.2045 67.4506L77.4147 74.2883C77.7703 74.5264 77.8941 74.9914 77.7039 75.3748L68.2904 94.351Z" fill="white"/>
<path d="M34.5089 44.7255C37.0745 70.1103 38.3574 82.8028 38.3574 82.8028C38.3574 82.8028 42.827 84.2224 51.7662 87.0618L44.5024 45.8794L34.5089 44.7255Z" fill="#D8DEED"/>
<path d="M86.2866 69.3745C86.0466 69.5037 85.772 69.577 85.4803 69.577C85.4245 69.577 85.3693 69.5743 85.3149 69.569L84.9124 69.6496V69.48C84.2506 69.2461 83.7764 68.6149 83.7764 67.873V59.0694C83.7764 58.3275 84.2506 57.6963 84.9124 57.4624V57.3508L87.4006 56.8511C88.314 56.6803 89.1564 57.446 89.2633 58.5723L89.3729 59.5741C89.424 60.195 89.2488 60.7815 88.9339 61.2252C89.1208 61.5102 89.2391 61.8701 89.2627 62.2804L89.3728 63.2815C89.4293 63.9635 89.2123 64.6037 88.8368 65.0586C88.9104 65.2552 88.9596 65.472 88.9788 65.7047L89.0888 66.706C89.1851 67.8695 88.4856 68.9114 87.5613 69.1194L86.2866 69.3745ZM78.9486 70.6668V70.8433L78.8761 70.8578C78.4513 71.9755 77.9932 73.1471 77.502 74.3727C77.4756 74.3499 77.4475 74.3284 77.4178 74.3085L67.2068 67.4703C67.1982 67.4645 67.1895 67.4589 67.1806 67.4534C67.1476 67.433 67.1136 67.4151 67.0791 67.3997L70.4074 62.0799C80.06 53.6815 84.0387 53.0553 82.3434 60.2015C81.7071 62.8841 80.5755 66.3725 78.9486 70.6668ZM44.1718 40.6218L44.5024 45.8794L41.6821 48.2956C36.8999 45.9155 34.5088 44.7254 34.5088 44.7254C34.5088 44.7254 34.5088 41.1245 34.5088 33.9227C33.5905 32.8967 32.8437 31.9511 32.5366 31.3326C31.916 30.1041 31.6788 27.6109 31.9486 26.1335C32.0381 25.527 34.0879 23.6952 35.3864 22.8974C36.6284 22.1045 39.2572 24.7013 39.5266 24.8487L39.2891 17.5717C39.2778 17.1165 39.6134 16.7166 40.0968 16.7028C41.0894 16.6445 42.0771 16.5295 43.1324 16.2092C43.2456 16.1993 43.3562 16.1611 43.4694 16.1512C44.4239 15.9821 49.8051 15.2548 52.9291 19.0295C53.2134 19.3467 53.4719 19.6947 53.7095 20.13C54.2255 21.1396 54.5225 22.2539 54.5366 23.393L54.5812 28.4634C54.5691 28.9776 54.5288 29.4942 54.4577 29.9851C53.9491 33.6215 52.8744 36.6518 51.6208 38.6144C50.6953 40.0923 49.633 40.9834 48.6453 41.0983C48.3648 41.1514 46.8347 41.2567 45.0053 40.8751C44.886 40.8466 44.9176 40.8714 44.1718 40.6218Z" fill="#DB9E75"/>
<path d="M27.61 82.2288C27.5618 82.2346 27.505 82.2418 27.4401 82.2505C27.1816 82.2851 26.8931 82.3307 26.582 82.3887C25.6942 82.5541 24.807 82.7848 23.9828 83.0902C23.4963 83.2705 23.0463 83.4719 22.6403 83.6952C22.4342 83.8086 22.1752 83.7334 22.0618 83.5273C21.9484 83.3211 22.0236 83.0621 22.2297 82.9487C22.6747 82.704 23.1627 82.4855 23.6868 82.2913C24.5611 81.9674 25.4938 81.7249 26.4259 81.5511C26.7518 81.4904 27.0547 81.4425 27.3271 81.4061C27.3804 81.3989 27.4304 81.3925 27.4771 81.3868L34.6296 59.7885C34.7036 59.5652 34.9446 59.4441 35.168 59.5181C35.3913 59.592 35.5124 59.833 35.4384 60.0564L28.3528 81.4523C38.5345 82.2488 48.9148 85.2205 59.0204 89.6665C63.0595 91.4435 66.7753 93.3368 70.0837 95.2233C71.2423 95.884 72.2676 96.4968 73.1489 97.0464C73.4579 97.2391 73.7269 97.4102 73.9547 97.5578C74.0347 97.6096 74.1039 97.6548 74.1621 97.6933C74.1974 97.7165 74.2214 97.7325 74.234 97.7409C74.4293 97.872 74.4815 98.1366 74.3504 98.332C74.2193 98.5274 73.9547 98.5795 73.7593 98.4484C73.7147 98.4185 73.625 98.3593 73.4914 98.2728C73.2677 98.1278 73.0029 97.9593 72.6981 97.7693C71.8261 97.2255 70.8104 96.6184 69.6617 95.9634C66.3778 94.0908 62.6881 92.2108 58.6773 90.4463C48.4738 85.9573 37.9941 82.9852 27.7468 82.2615C27.698 82.2581 27.6521 82.2467 27.61 82.2288ZM61.2301 75.7873C61.3593 75.5907 61.6234 75.5361 61.82 75.6653C62.0166 75.7945 62.0713 76.0586 61.9421 76.2552C61.9304 76.2731 61.9304 76.2731 61.8744 76.3584C61.8191 76.4426 61.755 76.5404 61.6828 76.6506C61.4766 76.9655 61.247 77.3167 61.0001 77.6955C60.2946 78.7776 59.5913 79.863 58.938 80.8806C58.8708 80.9855 58.8708 80.9855 58.8035 81.0903C57.809 82.6419 57.0363 83.8727 56.5637 84.6663C56.4433 84.8684 56.1818 84.9346 55.9797 84.8142C55.7776 84.6938 55.7113 84.4324 55.8317 84.2303C56.3105 83.4265 57.087 82.1895 58.0863 80.6305C58.1536 80.5255 58.1536 80.5255 58.2211 80.4204C58.8755 79.4009 59.5799 78.3138 60.2864 77.2302C60.5337 76.8509 60.7636 76.4992 60.9701 76.1838C61.0424 76.0734 61.1066 75.9755 61.162 75.891C61.2182 75.8054 61.2182 75.8054 61.2301 75.7873Z" fill="#482D1F"/>
<mask id="mask1" mask-type="alpha" maskUnits="userSpaceOnUse" x="78" y="39" width="7" height="38">
<path d="M84.9124 57.4625C84.2506 57.6964 83.7764 58.3275 83.7764 59.0694V67.8731C83.7764 68.615 84.2506 69.2461 84.9124 69.48V73.0904C84.9124 74.7372 83.5773 76.0723 81.9305 76.0723C80.2837 76.0723 78.9486 74.7372 78.9486 73.0904V39.7218H84.9124V57.4625Z" fill="white"/>
</mask>
<g mask="url(#mask1)">
<path d="M84.9124 57.4625C84.2506 57.6964 83.7764 58.3275 83.7764 59.0694V67.8731C83.7764 68.615 84.2506 69.2461 84.9124 69.48V73.0904C84.9124 74.7372 83.5773 76.0723 81.9305 76.0723C80.2837 76.0723 78.9486 74.7372 78.9486 73.0904V39.7218H84.9124V57.4625Z" fill="white"/>
<path d="M83.7764 60.7369V67.8731C83.7764 68.8141 84.5393 69.577 85.4803 69.577C86.4214 69.577 87.1843 68.8141 87.1843 67.8731V64.305V77.2082H75.8247V60.7369H83.7764Z" fill="#0AB9A9"/>
</g>
<path d="M44.1977 40.6031L44.3727 43.7466L39.9771 39.12L44.1977 40.6031ZM53.0524 30.3324C53.1376 29.9916 53.4784 29.736 53.8192 29.7928C54.0464 29.8212 54.2168 29.9916 54.302 30.3891C54.3872 31.3831 53.308 32.6327 52.9956 32.0363C52.7684 31.6671 52.9388 30.8435 53.0524 30.3324ZM46.858 29.5551C46.9432 29.2143 47.284 28.9587 47.6248 29.0155C47.852 29.0439 48.0224 29.2143 48.1076 29.6119C48.1928 30.6058 47.1136 31.8554 46.8012 31.259C46.574 30.8898 46.7444 30.0662 46.858 29.5551ZM50.9191 30.5519C50.9175 30.395 51.0434 30.2666 51.2002 30.265C51.357 30.2635 51.4854 30.3893 51.487 30.5462L51.5154 33.3889C51.5154 33.7161 51.2179 34.0137 50.8907 34.0137C50.7133 34.0137 50.5385 34.0024 50.274 33.9769C50.2248 33.9721 50.1737 33.967 50.1004 33.9595C50.0089 33.9502 49.9592 33.9451 49.9117 33.9404C49.7501 33.9241 49.6168 33.9114 49.4745 33.899C49.3183 33.8854 49.2026 33.7477 49.2162 33.5915C49.2298 33.4352 49.3675 33.3196 49.5237 33.3332C49.6688 33.3458 49.8047 33.3587 49.9686 33.3752C50.0165 33.3801 50.0665 33.3852 50.1578 33.3945C50.2303 33.4018 50.2806 33.4069 50.3287 33.4115C50.5765 33.4355 50.7353 33.4457 50.8907 33.4457C50.9042 33.4457 50.9475 33.4024 50.9475 33.3917L50.9191 30.5519ZM48.9311 35.4904C48.7323 35.4052 48.2496 35.178 48.2212 34.894C48.2212 34.8372 48.1928 34.752 48.2496 34.7236C48.3916 34.5816 48.7323 34.7236 49.2435 34.8656C50.1523 35.0928 50.8907 35.1496 50.8907 35.1496C50.8907 35.1496 50.6067 35.604 50.4363 35.7176C50.0955 36.0584 49.2151 35.6324 48.9311 35.4904Z" fill="#482D1F"/>
<path d="M38.3214 32.3915C38.0943 35.4607 35.6708 38.0006 32.5056 38.2775C28.9901 38.5851 25.8908 35.9846 25.5833 32.469C25.3884 30.2422 26.3605 28.1824 27.9928 26.8933C27.9904 26.881 27.9881 26.8686 27.9858 26.8562C27.8069 25.7886 27.1481 22.1688 29.346 19.2683C30.1131 18.2605 31.0353 17.7236 31.4141 17.491C33.5624 16.3053 35.2553 16.7558 39.5629 16.4645C39.9024 16.4348 40.4707 16.4135 41.2037 16.3209C42.5309 16.1763 43.4596 16.038 43.7142 16.0157C45.8286 15.7452 50.4969 15.9925 52.8085 18.9545C52.9366 19.1144 50.5742 18.1378 46.6893 20.607C42.8044 23.0762 42.1418 24.7625 40.1699 26.9875C40.0729 27.1319 39.971 27.289 39.865 27.4571L39.7947 26.9348C39.7947 26.9348 39.5925 25.9263 38.7961 24.9697C38.7346 24.9181 38.1992 24.3377 37.4364 24.0909C36.0622 23.698 34.3601 24.4456 33.5047 25.7462C32.5951 27.0801 32.7411 28.7493 33.39 29.9753C34.0389 31.2014 35.1377 31.7039 35.5203 31.8415C35.7651 31.9295 36.6988 32.1128 38.3214 32.3915Z" fill="#482D1F"/>
<path d="M42.5258 28.4656L39.7582 27.4859C39.5364 27.4074 39.4203 27.164 39.4988 26.9422C39.5773 26.7204 39.8207 26.6043 40.0425 26.6828L42.9024 27.6951C43.6159 26.5605 44.8792 25.8064 46.3185 25.8064C48.5457 25.8064 50.3511 27.6119 50.3511 29.839C50.3511 29.8922 50.3501 29.9452 50.348 29.9979L51.2062 30.1033C51.5939 28.2809 53.2126 26.9139 55.1505 26.9139C57.3777 26.9139 59.1831 28.7194 59.1831 30.9466C59.1831 33.1737 57.3777 34.9792 55.1505 34.9792C52.9248 34.9792 51.1202 33.176 51.1179 30.9508L50.2256 30.8412C49.78 32.5835 48.1997 33.8717 46.3185 33.8717C44.0913 33.8717 42.2859 32.0662 42.2859 29.839C42.2859 29.3568 42.3705 28.8943 42.5258 28.4656ZM43.4346 28.4956C43.2442 28.9037 43.1378 29.359 43.1378 29.839C43.1378 31.5957 44.5619 33.0197 46.3185 33.0197C48.0751 33.0197 49.4992 31.5957 49.4992 29.839C49.4992 28.0824 48.0751 26.6584 46.3185 26.6584C45.1124 26.6584 44.0631 27.3297 43.5239 28.319C43.5204 28.3335 43.5161 28.348 43.511 28.3624C43.4932 28.4126 43.4671 28.4573 43.4346 28.4956ZM51.9789 30.7045C51.9729 30.7844 51.9699 30.8651 51.9699 30.9466C51.9699 32.7032 53.3939 34.1272 55.1505 34.1272C56.9071 34.1272 58.3312 32.7032 58.3312 30.9466C58.3312 29.1899 56.9071 27.7659 55.1505 27.7659C53.5333 27.7659 52.1981 28.9728 51.9962 30.535C51.9993 30.5658 51.999 30.5974 51.9951 30.6293C51.9919 30.6553 51.9864 30.6804 51.9789 30.7045Z" fill="#482D1F"/>
</g>
<path d="M120.752 40.4291L117.876 39.5498C117.576 39.4581 117.407 39.1406 117.499 38.8406L121.181 26.7979C121.272 26.498 121.59 26.3291 121.89 26.4208L125.626 27.5632C125.926 27.6549 126.095 27.9725 126.004 28.2724L122.871 38.5199L127.192 39.811C131.185 53.9062 131.386 62.6449 127.795 66.0272C124.588 69.0464 123.992 72.0283 126.007 74.9728H130.35C130.664 74.9728 130.918 75.2271 130.918 75.5408V78.6646C130.918 78.9783 130.664 79.2326 130.35 79.2326H101.952C101.638 79.2326 101.384 78.9783 101.384 78.6646V75.5408C101.384 75.2271 101.638 74.9728 101.952 74.9728H108.813C110.594 73.07 113.705 68.8189 118.145 62.2197L106.618 59.1264C105.484 58.8221 104.812 57.6564 105.115 56.5223C105.419 55.389 106.584 54.7163 107.717 55.0198C107.717 55.0199 107.718 55.02 107.718 55.0201L125.555 59.8068C125.577 59.8128 125.6 59.8193 125.622 59.826C125.81 59.5375 125.904 59.1629 125.904 58.7023C125.904 55.9148 127.407 46.5288 124.578 45.4226C122.693 44.6851 121.146 44.1694 119.939 43.8756L120.752 40.4291ZM116.042 45.5322L119.778 46.6746C120.078 46.7663 120.247 47.0839 120.155 47.3838L119.091 50.865C118.684 52.1968 117.274 52.9464 115.942 52.5392C114.611 52.132 113.861 50.7223 114.268 49.3905L115.333 45.9093C115.424 45.6094 115.742 45.4405 116.042 45.5322Z" fill="#474961"/>
<path d="M123.961 42.8823C126.078 42.8823 127.795 41.1658 127.795 39.0484C127.795 36.9311 126.078 35.2146 123.961 35.2146C121.843 35.2146 120.127 36.9311 120.127 39.0484C120.127 41.1658 121.843 42.8823 123.961 42.8823Z" fill="#F2F6FB"/>
<path d="M119.924 46.7784C119.898 46.7659 119.871 46.7552 119.843 46.7465L116.106 45.6042C116.023 45.5789 115.939 45.5734 115.859 45.585L117.752 39.3918C117.777 39.4036 117.803 39.4137 117.83 39.422L121.567 40.5644C121.651 40.5901 121.736 40.5953 121.818 40.5829L119.924 46.7784ZM125.799 27.5606C125.739 27.5046 125.665 27.4611 125.581 27.4354L121.844 26.293C121.817 26.2847 121.79 26.2786 121.763 26.2744L122.629 23.4406C122.721 23.1407 123.038 22.9718 123.338 23.0635L126.303 23.97C126.603 24.0617 126.772 24.3792 126.68 24.6792L125.799 27.5606Z" fill="#F2F6FB"/>
<path d="M81.5368 94H8.80363C8.48995 94 8.23566 94.2543 8.23566 94.568V98.8571C8.23566 99.1707 8.48995 99.425 8.80363 99.425H81.5368C81.8505 99.425 82.1048 99.1707 82.1048 98.8571V94.568C82.1048 94.2543 81.8505 94 81.5368 94Z" fill="#E1E5F0"/>
<path d="M112.482 91.7281H132.032C133.198 91.7281 134.009 91.9259 134.703 92.2971C135.397 92.6684 135.942 93.2132 136.313 93.9074C136.684 94.6016 136.882 95.4122 136.882 96.5786V97.1013C136.882 98.2676 136.684 99.0783 136.313 99.7725C135.942 100.467 135.397 101.011 134.703 101.383C134.009 101.754 133.198 101.952 132.032 101.952H112.482C111.315 101.952 110.505 101.754 109.811 101.383C109.116 101.011 108.572 100.467 108.2 99.7725C107.829 99.0783 107.631 98.2676 107.631 97.1013V96.5786C107.631 95.4122 107.829 94.6016 108.2 93.9074C108.572 93.2132 109.116 92.6684 109.811 92.2971C110.505 91.9259 111.315 91.7281 112.482 91.7281Z" fill="#474BFF"/>
</g>
<g clip-path="url(#clip1)">
<path d="M164.713 8.2356H305.287C306.228 8.2356 306.991 8.99847 306.991 9.93952V108.767C306.991 109.708 306.228 110.471 305.287 110.471H164.713C163.772 110.471 163.009 109.708 163.009 108.767V9.93952C163.009 8.99847 163.772 8.2356 164.713 8.2356Z" fill="#F2F6FB"/>
<path d="M163.009 5.68101C163.009 2.54347 165.554 0 168.687 0H301.314C304.449 0 306.991 2.54371 306.991 5.68101V12.4955H163.009V5.68101Z" fill="#D8DEED"/>
<path d="M171.387 9.08766C172.877 9.08766 174.085 7.87978 174.085 6.38978C174.085 4.89978 172.877 3.69189 171.387 3.69189C169.897 3.69189 168.689 4.89978 168.689 6.38978C168.689 7.87978 169.897 9.08766 171.387 9.08766Z" fill="#FF5645"/>
<path d="M180.19 9.08766C181.68 9.08766 182.888 7.87978 182.888 6.38978C182.888 4.89978 181.68 3.69189 180.19 3.69189C178.7 3.69189 177.493 4.89978 177.493 6.38978C177.493 7.87978 178.7 9.08766 180.19 9.08766Z" fill="#FFCB3D"/>
<path d="M189.278 9.08766C190.768 9.08766 191.976 7.87978 191.976 6.38978C191.976 4.89978 190.768 3.69189 189.278 3.69189C187.788 3.69189 186.58 4.89978 186.58 6.38978C186.58 7.87978 187.788 9.08766 189.278 9.08766Z" fill="#3ABF7C"/>
<path d="M171.517 25.9309C171.517 25.3024 172.025 24.793 172.653 24.793H208.34C208.967 24.793 209.476 25.3002 209.476 25.9309V66.8212C209.476 67.4497 208.968 67.9591 208.34 67.9591H172.653C172.026 67.9591 171.517 67.4519 171.517 66.8212V25.9309ZM216.021 61.9027C216.021 61.2742 216.529 60.7648 217.157 60.7648H252.844C253.471 60.7648 253.98 61.272 253.98 61.9027V102.793C253.98 103.421 253.472 103.931 252.844 103.931H217.157C216.529 103.931 216.021 103.424 216.021 102.793V61.9027ZM260.524 25.9309C260.524 25.3024 261.032 24.793 261.66 24.793H297.347C297.974 24.793 298.483 25.3002 298.483 25.9309V66.8212C298.483 67.4497 297.975 67.9591 297.347 67.9591H261.66C261.033 67.9591 260.524 67.4519 260.524 66.8212V25.9309ZM260.524 75.6352C260.524 75.0079 261.032 74.4995 261.66 74.4995H297.347C297.974 74.4995 298.483 75.0103 298.483 75.6352V102.795C298.483 103.422 297.975 103.931 297.347 103.931H261.66C261.033 103.931 260.524 103.42 260.524 102.795V75.6352ZM171.517 75.6352C171.517 75.0079 172.025 74.4995 172.653 74.4995H208.34C208.967 74.4995 209.476 75.0103 209.476 75.6352V102.795C209.476 103.422 208.968 103.931 208.34 103.931H172.653C172.026 103.931 171.517 103.42 171.517 102.795V75.6352ZM216.021 25.9287C216.021 25.3014 216.529 24.793 217.157 24.793H252.844C253.471 24.793 253.98 25.3038 253.98 25.9287V53.0887C253.98 53.716 253.472 54.2244 252.844 54.2244H217.157C216.529 54.2244 216.021 53.7136 216.021 53.0887V25.9287Z" fill="#E1E5F0"/>
<path d="M191.276 52.8991L190.556 52.9082L190.561 52.8991H181.374C181.059 52.8991 180.938 52.6839 181.104 52.4181L187.543 42.1011C187.709 41.8354 187.983 41.8315 188.156 42.0932L192.841 49.2392L194.578 46.4503C194.744 46.1838 195.023 46.1773 195.202 46.4373L199.214 52.2508C199.392 52.51 199.284 52.7281 198.969 52.7378L195.457 52.8463L195.091 52.851L195.12 52.8991C195.12 52.8991 194.865 52.8991 194.55 52.8991H191.276ZM195.03 43.5707C194.185 43.5707 193.499 42.881 193.499 42.0303C193.499 41.1795 194.185 40.4898 195.03 40.4898C195.875 40.4898 196.56 41.1795 196.56 42.0303C196.56 42.881 195.875 43.5707 195.03 43.5707ZM235.78 88.8709L235.059 88.88L235.065 88.8709H225.878C225.563 88.8709 225.442 88.6557 225.608 88.3899L232.047 78.0729C232.212 77.8072 232.487 77.8033 232.66 78.065L237.344 85.211L239.081 82.4221C239.247 82.1556 239.526 82.1491 239.706 82.4091L243.717 88.2226C243.896 88.4818 243.787 88.6999 243.473 88.7096L239.96 88.8181L239.594 88.8228L239.623 88.8709C239.623 88.8709 239.369 88.8709 239.053 88.8709H235.78ZM239.533 79.5425C238.688 79.5425 238.003 78.8528 238.003 78.0021C238.003 77.1513 238.688 76.4616 239.533 76.4616C240.379 76.4616 241.064 77.1513 241.064 78.0021C241.064 78.8528 240.379 79.5425 239.533 79.5425ZM280.283 52.8991L279.563 52.9082L279.568 52.8991H270.381C270.066 52.8991 269.945 52.6839 270.111 52.4181L276.55 42.1011C276.716 41.8354 276.99 41.8315 277.163 42.0932L281.848 49.2392L283.585 46.4503C283.751 46.1838 284.03 46.1773 284.209 46.4373L288.22 52.2508C288.399 52.51 288.291 52.7281 287.976 52.7378L284.464 52.8463L284.098 52.851L284.127 52.8991C284.127 52.8991 283.872 52.8991 283.557 52.8991H280.283ZM284.037 43.5707C283.192 43.5707 282.506 42.881 282.506 42.0303C282.506 41.1795 283.192 40.4898 284.037 40.4898C284.882 40.4898 285.567 41.1795 285.567 42.0303C285.567 42.881 284.882 43.5707 284.037 43.5707ZM280.283 95.4113L279.563 95.4204L279.568 95.4113H270.381C270.066 95.4113 269.945 95.196 270.111 94.9302L276.55 84.6132C276.716 84.3475 276.99 84.3436 277.163 84.6053L281.848 91.7513L283.585 88.9625C283.751 88.696 284.03 88.6894 284.209 88.9494L288.22 94.7629C288.399 95.0222 288.291 95.2402 287.976 95.2499L284.464 95.3585L284.098 95.3631L284.127 95.4113C284.127 95.4113 283.872 95.4113 283.557 95.4113H280.283ZM284.037 86.0829C283.192 86.0829 282.506 85.3932 282.506 84.5424C282.506 83.6916 283.192 83.0019 284.037 83.0019C284.882 83.0019 285.567 83.6916 285.567 84.5424C285.567 85.3932 284.882 86.0829 284.037 86.0829ZM191.276 95.4113L190.556 95.4204L190.561 95.4113H181.374C181.059 95.4113 180.938 95.196 181.104 94.9302L187.543 84.6132C187.709 84.3475 187.983 84.3436 188.156 84.6053L192.841 91.7513L194.578 88.9625C194.744 88.696 195.023 88.6894 195.202 88.9494L199.214 94.7629C199.392 95.0222 199.284 95.2402 198.969 95.2499L195.457 95.3585L195.091 95.3631L195.12 95.4113C195.12 95.4113 194.865 95.4113 194.55 95.4113H191.276ZM195.03 86.0829C194.185 86.0829 193.499 85.3932 193.499 84.5424C193.499 83.6916 194.185 83.0019 195.03 83.0019C195.875 83.0019 196.56 83.6916 196.56 84.5424C196.56 85.3932 195.875 86.0829 195.03 86.0829ZM235.78 45.7048L235.059 45.7139L235.065 45.7048H225.878C225.563 45.7048 225.442 45.4895 225.608 45.2237L232.047 34.9067C232.212 34.641 232.487 34.6371 232.66 34.8988L237.344 42.0448L239.081 39.256C239.247 38.9895 239.526 38.9829 239.706 39.2429L243.717 45.0564C243.896 45.3157 243.787 45.5337 243.473 45.5434L239.96 45.652L239.594 45.6566L239.623 45.7048C239.623 45.7048 239.369 45.7048 239.053 45.7048H235.78ZM239.533 36.3764C238.688 36.3764 238.003 35.6867 238.003 34.8359C238.003 33.9851 238.688 33.2954 239.533 33.2954C240.379 33.2954 241.064 33.9851 241.064 34.8359C241.064 35.6867 240.379 36.3764 239.533 36.3764Z" fill="#F2F6FB"/>
</g>
<g clip-path="url(#clip2)">
<path d="M228.525 218.845V218.898C228.525 219.579 227.929 220.147 227.247 220.147H205.805L213.36 234.006C218.756 243.889 224.123 253.743 229.491 263.626L238.379 279.927C238.692 280.495 238.436 281.233 237.84 281.574L237.726 281.631C237.13 281.972 236.363 281.773 236.079 281.233L202.824 220.147H180.673L147.418 281.233C147.134 281.773 146.367 281.943 145.771 281.631L145.657 281.574C145.061 281.233 144.805 280.495 145.118 279.927L154.007 263.626C159.402 253.743 164.77 243.889 170.137 234.006L177.692 220.147H149.264C148.554 220.147 147.986 219.579 147.986 218.898V218.756C147.986 218.074 148.582 217.506 149.264 217.506H168.575C181.156 217.506 193.765 217.506 206.374 217.506H226.018L228.411 198.138C230.058 184.961 231.677 171.756 233.324 158.55L236.022 136.74C236.107 135.973 236.761 135.405 237.471 135.491L237.613 135.519C238.294 135.604 238.777 136.314 238.692 137.024L228.553 218.699C228.546 218.749 228.536 218.797 228.525 218.845Z" fill="#D8DEED"/>
<path d="M228.525 218.845V218.898C228.525 219.579 227.928 220.147 227.247 220.147H205.805L213.36 234.006C218.756 243.889 224.123 253.743 229.49 263.626L238.379 279.927C238.692 280.495 238.436 281.233 237.84 281.574L237.726 281.631C237.13 281.972 236.363 281.773 236.079 281.233L202.824 220.147H180.673L147.418 281.233C147.134 281.773 146.367 281.943 145.771 281.631L145.657 281.574C145.061 281.233 144.805 280.495 145.118 279.927L154.006 263.626C159.402 253.743 164.769 243.889 170.137 234.006L177.691 220.147H149.264C148.554 220.147 147.986 219.579 147.986 218.898V218.756C147.986 218.074 148.582 217.506 149.264 217.506H168.575C181.156 217.506 193.765 217.506 206.374 217.506H226.017L228.411 198.138C230.058 184.961 231.677 171.756 233.324 158.55L236.022 136.74C236.107 135.973 236.76 135.405 237.47 135.491L237.612 135.519C238.294 135.604 238.777 136.314 238.692 137.024L228.553 218.699C228.546 218.749 228.536 218.797 228.525 218.845Z" fill="#D8DEED"/>
</g>
<g clip-path="url(#clip3)">
<path d="M183.894 279.444L168.547 279.444C167.841 279.444 167.269 280.016 167.269 280.722C167.269 281.428 167.841 282 168.547 282L184.45 282C184.74 282 185.008 281.903 185.222 281.741L185.226 281.741L213.488 260.563C214.006 260.174 214.133 259.41 213.715 258.92L213.633 258.776C213.383 258.459 212.988 258.282 212.59 258.303C212.363 258.3 212.163 258.381 211.961 258.52L183.894 279.444ZM110.329 279.444C109.623 279.444 109.051 280.016 109.051 280.722C109.051 281.428 109.623 282 110.329 282L155.767 282C156.473 282 157.045 281.428 157.045 280.722C157.045 280.016 156.473 279.444 155.767 279.444L110.329 279.444Z" fill="#A339FF"/>
<path d="M109.926 279.685C110.059 279.638 110.203 279.612 110.353 279.612L155.791 279.612C155.916 279.612 156.036 279.63 156.15 279.663L156.487 261.765L135.131 261.765C132.507 263.48 130.8 264.719 130.01 265.481C128.826 266.625 127.558 267.683 126.178 268.596C122.845 270.781 121.113 270.751 116.044 273.134C114.67 273.763 113.351 274.479 112.059 275.28C110.767 276.081 110.325 276.982 109.96 278.339C109.9 278.565 109.896 278.792 109.864 278.991C109.859 279.295 109.882 279.517 109.926 279.685ZM212.569 258.472L202.337 243.923L185.017 256.601L184.476 258.296C182.367 265.227 181.224 268.881 181.047 269.256C180.834 269.696 180.615 270.101 180.384 270.496C178.83 271.098 177.066 271.682 174.364 272.974C172.99 273.603 171.671 274.319 170.379 275.12C169.087 275.921 168.645 276.822 168.28 278.179C168.22 278.405 168.216 278.632 168.184 278.831C168.179 279.121 168.223 279.392 168.296 279.641C168.385 279.622 168.476 279.612 168.57 279.612L183.918 279.612L211.985 258.688C212.173 258.558 212.36 258.478 212.569 258.472Z" fill="#474961"/>
<path d="M156.688 238.006C162.198 240.292 169.079 238.694 177.332 233.211C191.995 223.469 190.621 219.867 189.343 218.021C189.343 217.993 189.114 217.655 189.114 217.627C189.569 217.627 189.051 217.258 192.288 217.229C195.526 217.201 212.962 216.832 219.636 207.204C222.298 203.364 222.504 199.111 222.703 197.208C223.442 189.805 220.611 182.808 214.21 176.217C167.865 176.258 144.654 176.259 144.578 176.221C144.465 176.164 135.607 175.933 129.879 179.953C124.385 183.809 119.494 191.982 125.154 206.241L125.983 225.98C126.263 232.662 131.447 238.105 138.108 238.712C141.078 238.983 144.337 239.118 147.883 239.118C149.81 239.118 152.481 238.806 155.895 238.182C156.163 238.133 156.428 238.074 156.688 238.006V238.006Z" fill="#3ABF7C"/>
<path opacity="0.176986" d="M156.844 237.924C155.788 237.497 154.783 236.928 153.827 236.218C136.384 219.901 127.103 210.486 125.984 207.973C125.694 207.32 125.425 206.679 125.176 206.05L126.011 225.932C126.292 232.614 131.475 238.057 138.136 238.664C141.107 238.935 144.365 239.07 147.912 239.07C149.838 239.07 152.509 238.758 155.923 238.134C156.235 238.077 156.542 238.007 156.844 237.924H156.844Z" fill="#444444"/>
<path d="M176.234 198.684C177.635 200.803 179.111 202.863 182.694 207.764C186.288 212.681 187.769 214.747 189.184 216.888C189.357 217.149 189.285 217.502 189.023 217.675C188.761 217.848 188.409 217.776 188.236 217.514C186.835 215.395 185.359 213.335 181.776 208.434C178.182 203.516 176.701 201.451 175.286 199.31C175.113 199.049 175.185 198.696 175.447 198.523C175.708 198.35 176.061 198.422 176.234 198.684Z" fill="#482D1F"/>
<path d="M214.05 137.342C213.697 136.427 213.203 135.459 212.57 134.438C209.471 128.67 207.158 126.483 204.256 125.522C201.398 124.576 198.163 124.103 194.549 124.103C186.287 124.103 180.488 131.758 180.756 140.415L183.788 176.61C197.094 177.504 207.856 177.325 216.074 176.073C224.292 174.82 227.54 172.418 225.819 168.867L217.693 145.402C216.343 142.247 215.144 139.587 214.05 137.342L214.05 137.342Z" fill="#3ABCD8"/>
<path d="M187.848 224.788C185.983 226.896 182.766 229.6 177.416 233.111C174.124 235.272 171.05 236.823 168.194 237.763L184.986 256.617L202.337 243.923L187.848 224.788ZM157.098 237.985C156.984 237.942 156.871 237.897 156.758 237.851C156.496 237.919 156.23 237.977 155.961 238.026C152.546 238.642 149.876 238.95 147.949 238.95C144.4 238.95 141.14 238.817 138.167 238.549C136.547 238.403 135.013 237.971 133.616 237.304L135.131 261.765H156.487L157.098 237.985ZM199.657 113.742C200.666 112.954 201.379 111.614 201.173 110.088C200.988 108.617 200.039 106.973 198.743 106.533C197.424 106.085 195.614 107.026 195.739 106.356L197.236 99.2402C197.311 98.7911 197.034 98.3483 196.591 98.2461C195.589 98.0438 194.603 98.0203 193.609 97.5285C193.499 97.503 193.394 97.4497 193.284 97.4242C192.368 97.0963 187.271 95.1907 183.539 98.3513C183.22 98.5982 182.909 98.9345 182.592 99.2985C181.842 100.146 181.365 101.201 181.165 102.321L180.243 107.325C180.183 107.836 180.096 108.34 180.092 108.864C179.897 115.26 181.632 120.12 183.918 120.823C184.188 120.914 185.676 121.287 187.528 121.219C187.707 121.202 187.549 121.253 190.091 120.849C190.565 120.781 190.994 120.715 191.38 120.651L191.548 124.573C192.457 124.369 193.412 124.248 194.409 124.219C196.323 124.219 198.137 124.343 199.853 124.591L199.657 113.742ZM182.614 162.021C182.741 162.106 182.868 162.191 182.996 162.276C186.325 164.487 187.948 165.142 189.351 165.233C195.37 165.627 198.144 160.504 202.863 154.01C204.379 151.924 205.665 150.101 206.721 148.542C206.716 148.542 206.712 148.542 206.707 148.543C203.681 147.952 200.62 145.733 197.524 141.887C195.966 139.951 194.747 137.992 193.869 136.012C190.129 141.862 188.15 144.921 187.932 145.189C182.591 142.614 161.879 130.447 152.199 123.45C151.692 122.887 147.442 119.159 139.449 112.265C137.219 114.802 141.44 119.241 143.383 121.064C143.847 121.823 140.927 125.777 141.391 126.535C141.096 129.145 150.882 136.572 153.982 139.349C154.935 140.197 155.501 140.715 156.852 141.832C164.2 148.019 170.49 153.468 178.233 158.995L176.316 163.967L156.598 166.004C151.213 164.975 147.418 164.555 145.212 164.745C141.439 165.07 131.932 168.5 135.037 170.708C137.108 172.18 141.637 174.045 148.626 176.303C169.639 176.706 181.36 176.822 183.789 176.648L182.614 162.021V162.021Z" fill="#F2A98A"/>
<path d="M193.36 109.868L193.736 109.175C193.736 109.175 194.257 108.33 195.283 107.757C195.376 107.713 196.026 107.374 196.793 107.425C198.158 107.502 199.414 108.768 199.727 110.217C200.088 111.731 199.428 113.158 198.446 114.024C197.831 114.566 197.145 114.806 196.626 114.918C197.443 115.832 198.447 116.916 199.637 118.172L199.722 123.08C202.605 123.583 204.909 123.053 206.635 121.49C209.435 118.955 208.279 115.98 206.785 114.52C206.444 114.186 205.853 113.654 205.122 113.044C205.664 112.311 206.184 111.426 206.587 110.376C206.94 109.35 208.235 105.889 206.558 102.675C205.979 101.521 205.174 100.84 204.832 100.557C202.944 99.0136 201.183 99.1901 196.997 98.1361C196.118 97.904 194.823 97.576 193.312 97.0523C193.195 97.0544 193.091 97.0012 192.98 96.9756C192.065 96.6477 187.059 95.2296 183.525 98.2902C183.512 98.3455 182.974 98.6584 182.982 98.7478C182.982 98.7478 183.691 103.447 192.039 104.529C192.039 104.529 192.638 107.569 193.36 109.868ZM180.043 105.315C180.553 105.51 181.424 105.783 182.261 105.67C183.566 105.541 182.458 104.609 181.307 104.422C180.746 104.332 180.27 104.521 179.973 104.69C179.737 104.843 179.777 105.2 180.043 105.315ZM185.085 106.509C185.623 106.71 186.494 106.983 187.359 106.876C188.658 106.775 187.555 105.815 186.404 105.628C185.815 105.532 185.34 105.721 185.042 105.89C184.779 106.037 184.819 106.394 185.085 106.509Z" fill="#DE6903"/>
<path d="M191.44 122.983L194.645 119.805L191.323 120.526L191.44 122.983Z" fill="#482D1F"/>
<path d="M181.701 107.946C181.74 107.602 181.537 107.279 181.21 107.185C180.991 107.122 180.769 107.176 180.578 107.535C180.136 108.354 180.622 109.852 181.118 109.463C181.485 109.213 181.622 108.425 181.701 107.946ZM186.293 109.04C186.333 108.697 186.13 108.373 185.802 108.279C185.584 108.217 185.362 108.271 185.17 108.63C184.729 109.448 185.215 110.947 185.711 110.557C186.077 110.308 186.242 109.528 186.293 109.04Z" fill="#482D1F"/>
<path d="M183.589 114.83C183.795 114.816 184.302 114.75 184.451 114.462C184.463 114.406 184.508 114.329 184.492 114.267C184.416 114.077 184.038 114.084 183.526 114.033C182.619 113.927 181.915 113.69 181.915 113.69C181.915 113.69 182.019 114.293 182.128 114.462C182.311 114.965 183.265 114.849 183.589 114.83Z" fill="#482D1F"/>
<path d="M182.322 109.148L182.332 109.107L182.326 109.127L182.322 109.148ZM181.367 112.009L181.359 112.039C181.295 112.343 181.442 112.668 181.734 112.783C181.788 112.8 181.819 112.809 181.849 112.818C182.139 112.899 182.349 112.947 183.106 113.108C183.26 113.14 183.41 113.042 183.443 112.889C183.476 112.736 183.378 112.585 183.224 112.552C182.481 112.394 182.276 112.348 182.003 112.271C181.975 112.263 181.946 112.255 181.918 112.246C181.924 112.248 181.908 112.21 181.913 112.169L182.871 109.287L182.882 109.247L183.174 107.596C183.202 107.442 183.099 107.294 182.944 107.267C182.79 107.239 182.642 107.342 182.615 107.497L182.326 109.127L181.367 112.009Z" fill="#482D1F"/>
<path opacity="0.2" d="M182.557 161.729C181.067 160.742 179.638 159.763 178.254 158.786L176.315 163.85L156.597 165.888C151.214 164.86 147.419 164.44 145.211 164.628C141.434 164.95 131.927 168.407 135.036 170.592C137.109 172.048 141.659 173.917 148.687 176.199C172.133 176.68 183.833 176.78 183.788 176.5C183.785 176.481 183.782 176.445 183.779 176.393C183.769 176.392 183.759 176.391 183.749 176.391L182.557 161.729Z" fill="#8C2A00"/>
<path d="M206.404 148.25C208.13 146.168 209.563 144.346 210.702 142.784C210.84 142.594 211.107 142.552 211.297 142.691C211.487 142.829 211.529 143.096 211.39 143.286C210.24 144.864 208.797 146.699 207.059 148.794C206.909 148.975 206.641 149 206.46 148.85C206.279 148.7 206.253 148.432 206.404 148.25Z" fill="#482D1F"/>
</g>
<g clip-path="url(#clip4)">
<path d="M46.574 178.06V279.586C46.574 280.684 45.684 281.574 44.5861 281.574C43.4882 281.574 42.5982 280.684 42.5982 279.586L42.5982 176.215C42.5982 175.258 43.2739 174.459 44.174 174.269C44.4287 174.151 44.7127 174.085 45.0121 174.085H213.985C215.083 174.085 215.973 174.975 215.973 176.073C215.973 177.17 215.083 178.06 213.985 178.06H46.574Z" fill="#D8DEED"/>
</g>
<g clip-path="url(#clip5)">
<path d="M79.8784 170.677L82.6094 159.658H62.1084C59.9785 159.658 58.2175 158.039 58.2175 156.08V124.869C58.1894 122.882 59.9217 121.263 62.08 121.263H124.472C126.602 121.263 128.363 122.882 128.363 124.841V156.08C128.363 158.039 126.602 159.658 124.472 159.658H99.4882L98.3608 170.677H105.758C106.894 170.677 107.774 171.586 107.774 172.694C107.774 173.83 106.865 174.71 105.758 174.71H74.0931C72.9571 174.71 72.0768 173.801 72.0768 172.694C72.02 171.586 72.9571 170.677 74.0931 170.677H79.8784Z" fill="#474961"/>
<path fill-rule="evenodd" clip-rule="evenodd" d="M100.335 151.626L100.419 170.706H98.3827L100.335 151.626Z" fill="white"/>
</g>
<g clip-path="url(#clip6)">
<path d="M133.112 170.315C136.201 167.298 142.507 164.932 152.927 170.894C154.516 171.773 153.936 174.538 152.174 174.533L134.021 174.411C132.656 174.42 132.082 171.331 133.112 170.315Z" fill="#474961"/>
</g>
<defs>
<clipPath id="clip0">
<rect width="149.094" height="109.619" fill="white"/>
</clipPath>
<clipPath id="clip1">
<rect width="143.982" height="110.471" fill="white" transform="translate(163.009)"/>
</clipPath>
<clipPath id="clip2">
<rect width="94" height="146.538" fill="white" transform="translate(144.834 135.462)"/>
</clipPath>
<clipPath id="clip3">
<rect width="148.242" height="214.695" fill="white" transform="translate(98.5437 67.3052)"/>
</clipPath>
<clipPath id="clip4">
<rect width="173.517" height="107.631" fill="white" transform="translate(42.5982 174.085)"/>
</clipPath>
<clipPath id="clip5">
<rect width="100.532" height="75.5408" fill="white" transform="translate(43.1661 99.3958)"/>
</clipPath>
<clipPath id="clip6">
<rect width="29.2508" height="23.571" fill="white" transform="translate(128.646 150.798)"/>
</clipPath>
</defs>
</svg>
